<?xml version="1.0" standalone="no"?>
<!DOCTYPE svg PUBLIC "-//W3C//DTD SVG 20010904//EN"
 "http://www.w3.org/TR/2001/REC-SVG-20010904/DTD/svg10.dtd">
<svg version="1.0" xmlns="http://www.w3.org/2000/svg"
 width="1500.000000pt" height="187.000000pt" viewBox="0 0 1500.000000 187.000000"
 preserveAspectRatio="xMidYMid meet">

<g transform="translate(0.000000,187.000000) scale(0.100000,-0.100000)"
fill="#000000" stroke="none">
<path d="M3574 1696 c-5 -12 -22 -16 -73 -16 l-66 0 -63 -187 c-233 -694 -411
-1196 -416 -1173 -3 14 -14 93 -25 175 -11 83 -28 197 -36 255 -9 58 -18 119
-20 135 -8 57 -106 740 -111 773 l-5 32 -318 0 c-175 0 -366 -3 -425 -7 l-108
-6 -91 -105 c-51 -58 -150 -171 -221 -251 -71 -80 -154 -175 -186 -211 -31
-36 -128 -146 -216 -246 -87 -99 -233 -265 -324 -369 -91 -104 -200 -228 -243
-277 -44 -48 -77 -88 -75 -88 1 -1 118 -3 259 -7 185 -4 258 -2 263 6 4 7 38
11 85 11 l78 0 107 130 108 130 417 0 418 0 12 -87 c18 -143 23 -178 26 -181
2 -2 114 -6 249 -9 191 -5 252 -3 271 7 13 7 36 10 52 6 29 -6 1228 -7 1393
-1 125 5 423 39 442 51 4 3 32 11 62 19 101 27 230 118 299 213 49 67 108 181
152 295 21 53 40 96 42 94 2 -2 -6 -33 -17 -69 -34 -111 -48 -189 -56 -309 -5
-64 -2 -85 16 -127 40 -93 105 -133 266 -164 98 -18 155 -21 549 -24 392 -3
455 -2 580 15 77 11 158 22 180 25 191 25 325 95 435 228 61 72 93 139 159
331 45 132 301 974 301 990 0 9 -336 9 -512 1 l-135 -7 -128 -446 c-70 -245
-133 -455 -140 -466 -7 -11 -16 -33 -19 -49 -14 -57 -70 -130 -120 -155 l-48
-23 -292 5 c-312 6 -351 11 -389 58 -32 39 -17 132 57 353 36 105 101 307 146
449 45 142 84 265 87 273 4 12 -30 14 -230 14 -147 0 -238 -4 -242 -10 -3 -5
-43 -10 -89 -10 l-82 0 -68 -222 c-66 -214 -94 -296 -81 -238 20 93 26 133 26
197 0 57 -5 81 -25 120 -45 85 -70 104 -184 136 -75 21 -94 21 -865 25 -705 3
-788 1 -793 -12z m2126 -92 c0 -4 -65 -205 -145 -448 -79 -242 -156 -488 -170
-546 -32 -132 -33 -234 -5 -290 22 -43 17 -50 -16 -22 -37 29 -55 69 -56 119
-2 64 12 181 24 213 5 14 14 48 19 75 10 53 255 858 271 888 6 11 20 17 43 17
19 0 35 -3 35 -6z m1490 -1 c0 -15 -222 -740 -239 -783 -11 -25 -27 -65 -37
-90 -22 -51 -53 -91 -96 -122 l-31 -22 21 40 c11 21 28 55 37 75 17 40 128
407 216 716 l54 193 38 0 c20 0 37 -3 37 -7z m-3661 -30 c-6 -16 -37 -102 -69
-193 -32 -91 -89 -248 -125 -350 -37 -102 -97 -270 -135 -375 -172 -483 -156
-442 -166 -433 -4 4 318 957 461 1366 2 6 13 12 24 12 18 0 19 -3 10 -27z
m-1569 8 c0 -5 -8 -15 -17 -22 -9 -8 -57 -61 -107 -119 -50 -59 -163 -189
-251 -290 -88 -101 -225 -258 -304 -349 -79 -91 -169 -195 -201 -231 -31 -36
-90 -103 -131 -149 -41 -46 -96 -110 -124 -142 -48 -58 -81 -78 -68 -41 6 14
166 207 243 292 14 15 52 58 85 96 33 37 100 113 149 169 49 55 100 114 115
130 14 17 121 138 236 270 115 132 212 242 215 245 3 3 34 38 69 78 56 64 91
88 91 63z m372 -386 c10 -71 26 -196 36 -277 l19 -148 -22 0 c-24 0 -24 0 -46
185 -5 44 -11 91 -14 105 -3 14 -9 59 -15 100 -5 41 -12 97 -16 123 -7 47 -6
49 17 45 22 -3 24 -10 41 -133z m2318 92 c53 -9 88 -29 100 -57 23 -56 -9
-228 -77 -407 -48 -127 -83 -184 -136 -219 l-42 -29 -422 -3 c-233 -1 -423 1
-423 5 0 4 56 166 124 358 l124 350 213 6 c221 5 495 4 539 -4z m235 -14 c14
-15 26 -37 26 -48 4 -48 4 -62 -3 -95 -15 -82 -89 -303 -130 -390 -18 -37 -67
-99 -88 -110 -14 -7 -9 9 20 68 21 42 57 135 80 207 61 189 77 294 55 358 -16
47 2 51 40 10z m-2676 -244 c17 -124 31 -233 31 -242 0 -15 -22 -17 -236 -17
-131 0 -234 4 -232 9 3 9 26 36 183 220 50 59 113 133 140 166 28 33 57 68 64
77 8 10 16 16 17 15 2 -1 17 -104 33 -228z m221 -646 c0 -16 3 -58 7 -95 5
-57 3 -68 -9 -68 -17 0 -23 22 -34 128 -6 59 -5 62 15 62 16 0 21 -6 21 -27z"/>
<path d="M7806 1701 l-89 -6 -213 -770 c-117 -424 -214 -776 -214 -782 0 -17
1595 -19 1605 -3 3 6 35 10 70 10 l63 0 16 48 c27 85 96 341 96 357 0 13 -59
15 -538 15 l-539 0 163 563 c90 309 164 565 164 570 0 8 -445 6 -584 -2z m54
-90 c0 -8 -372 -1267 -401 -1358 -8 -26 -16 -33 -36 -33 -16 0 -23 5 -20 13 2
6 88 316 191 687 103 371 189 681 191 688 5 14 75 17 75 3z"/>
<path d="M8962 1513 c-28 -108 -49 -201 -46 -205 3 -4 156 -8 340 -8 315 0
335 -1 330 -17 -15 -51 -276 -1125 -276 -1138 0 -13 35 -15 249 -15 156 0 252
4 256 10 3 6 30 10 60 10 30 0 56 4 59 8 4 7 110 405 270 1022 l33 125 334 3
c184 2 337 7 340 10 5 6 99 372 99 387 0 3 -449 5 -998 5 l-999 0 -51 -197z
m188 104 c0 -1 -13 -49 -30 -107 -16 -58 -30 -106 -30 -106 0 -6 -62 -9 -65
-4 -4 6 33 156 50 208 4 9 75 19 75 9z m587 -321 c-3 -7 -69 -248 -146 -536
-78 -288 -144 -527 -147 -531 -9 -15 -24 -10 -24 7 0 8 59 254 131 545 l131
529 30 0 c21 0 29 -4 25 -14z"/>
<path d="M10991 1303 c-51 -225 -95 -418 -98 -430 l-5 -23 404 0 c414 0 536 8
614 38 57 23 129 93 156 151 45 99 99 304 113 429 5 48 10 60 19 53 9 -7 16
-7 23 0 8 8 13 7 18 -2 6 -8 4 -10 -6 -5 -9 5 -9 3 1 -6 15 -12 316 -866 309
-872 -2 -1 -152 -8 -334 -15 -573 -20 -931 -63 -1168 -138 -97 -30 -153 -76
-139 -114 48 -129 769 -229 1658 -229 834 0 1526 85 1652 202 142 134 -390
248 -1314 281 l-330 12 386 445 386 445 77 3 c42 2 77 1 77 -2 0 -2 -34 -151
-75 -331 -41 -180 -75 -332 -75 -336 0 -12 796 -11 890 1 110 14 165 38 221
93 27 26 49 55 49 63 0 7 5 14 10 14 6 0 10 7 10 15 0 8 4 23 9 33 44 83 94
308 95 427 1 90 -1 103 -23 134 -13 18 -42 42 -65 52 -39 18 -80 19 -733 19
l-691 0 -114 -137 c-143 -174 -246 -306 -283 -362 -25 -37 -30 -40 -36 -25 -4
11 -44 133 -88 272 l-82 252 -712 0 -713 0 -93 -407z m876 175 c28 -25 27 -70
-4 -202 -23 -102 -32 -124 -59 -151 -17 -18 -46 -35 -64 -39 -58 -11 -530 -7
-530 5 0 6 20 98 45 206 25 107 45 197 45 199 0 3 123 4 274 2 242 -3 276 -5
293 -20z m2453 -3 c19 -17 22 -27 17 -75 -3 -30 -15 -97 -27 -148 -25 -106
-52 -146 -108 -162 -21 -5 -149 -10 -291 -10 -242 0 -253 1 -248 19 2 10 24
105 48 210 l43 192 272 -3 c256 -3 273 -4 294 -23z m-1605 -1036 c81 -11 165
-40 165 -57 0 -52 -276 -93 -498 -74 -70 6 -150 18 -178 27 -235 70 159 150
511 104z"/>
</g>
</svg>
