<?xml version="1.0" standalone="no"?>
<!DOCTYPE svg PUBLIC "-//W3C//DTD SVG 20010904//EN"
 "http://www.w3.org/TR/2001/REC-SVG-20010904/DTD/svg10.dtd">
<svg version="1.0" xmlns="http://www.w3.org/2000/svg"
 width="1500.000000pt" height="187.000000pt" viewBox="0 0 1500.000000 187.000000"
 preserveAspectRatio="xMidYMid meet">

<g transform="translate(0.000000,187.000000) scale(0.100000,-0.100000)"
fill="#000000" stroke="none">
<path d="M8091 1700 l-174 -5 -200 -721 c-110 -397 -198 -728 -195 -735 5 -12
127 -13 754 -9 l749 5 47 180 c25 99 47 188 47 198 1 16 -30 17 -510 17 -481
0 -510 1 -505 18 3 9 37 134 75 277 39 143 102 375 140 515 38 140 67 258 64
263 -2 4 -30 6 -61 5 -31 -1 -135 -5 -231 -8z m84 -482 c-58 -216 -120 -444
-137 -507 -29 -104 -30 -116 -17 -140 l15 -26 487 -3 c380 -2 487 -5 487 -15
0 -16 -47 -197 -52 -203 -3 -2 -303 -4 -669 -4 -629 0 -664 1 -661 17 4 17
162 594 291 1056 34 120 61 220 61 222 0 8 295 10 298 3 2 -4 -44 -184 -103
-400z"/>
<path d="M9121 1673 c-62 -238 -82 -326 -77 -339 5 -12 50 -13 316 -7 263 5
310 4 310 -8 -1 -8 -61 -255 -134 -549 l-134 -535 236 -3 c152 -1 238 1 242 8
3 5 35 128 69 272 35 145 94 387 130 538 l67 275 321 3 c295 2 322 4 327 20 3
9 17 69 31 132 15 63 32 141 40 173 l13 57 -874 0 -873 0 -10 -37z m1654 -56
c-2 -7 -14 -54 -25 -104 l-22 -93 -296 0 -297 0 -32 -30 c-28 -26 -35 -47 -73
-202 -143 -596 -202 -835 -208 -851 -7 -16 -22 -18 -156 -18 -81 0 -150 2
-152 4 -2 2 52 232 121 511 69 279 125 514 125 522 0 8 -7 26 -16 40 l-17 25
-291 -1 -291 -1 3 25 c1 13 13 60 25 103 l22 78 785 5 c432 3 788 4 792 2 4
-1 5 -8 3 -15z"/>
<path d="M10991 1303 c-51 -225 -95 -418 -98 -430 l-5 -23 404 0 c414 0 536 8
614 38 57 23 129 93 156 151 45 99 99 304 113 429 5 48 10 60 19 53 9 -7 16
-7 23 0 8 8 13 7 18 -2 6 -8 4 -10 -6 -5 -9 5 -9 3 1 -6 15 -12 316 -866 309
-872 -2 -1 -152 -8 -334 -15 -573 -20 -931 -63 -1168 -138 -97 -30 -153 -76
-139 -114 48 -129 769 -229 1658 -229 834 0 1526 85 1652 202 142 134 -390
248 -1314 281 l-330 12 386 445 386 445 77 3 c42 2 77 1 77 -2 0 -2 -34 -151
-75 -331 -41 -180 -75 -332 -75 -336 0 -12 796 -11 890 1 110 14 165 38 221
93 27 26 49 55 49 63 0 7 5 14 10 14 6 0 10 7 10 15 0 8 4 23 9 33 44 83 94
308 95 427 1 90 -1 103 -23 134 -13 18 -42 42 -65 52 -39 18 -80 19 -733 19
l-691 0 -114 -137 c-143 -174 -246 -306 -283 -362 -25 -37 -30 -40 -36 -25 -4
11 -44 133 -88 272 l-82 252 -712 0 -713 0 -93 -407z m1502 202 c26 -77 64
-192 83 -255 19 -63 42 -123 51 -132 11 -12 31 -18 59 -18 48 0 35 -13 160
155 84 113 280 354 306 378 19 16 65 17 653 17 609 0 635 -1 680 -20 36 -15
49 -28 62 -57 14 -35 14 -47 0 -133 -21 -124 -69 -289 -108 -368 -33 -68 -70
-99 -149 -127 -61 -22 -328 -36 -615 -33 -229 3 -230 3 -233 25 -2 12 24 141
57 287 34 145 61 279 61 297 0 60 -19 69 -149 69 l-117 0 -40 -42 c-23 -24
-172 -195 -333 -380 -293 -340 -325 -370 -355 -337 -7 8 -68 175 -136 371 -67
196 -130 364 -140 373 -11 10 -37 15 -82 15 -81 0 -91 -10 -107 -110 -24 -139
-74 -325 -109 -398 -56 -119 -119 -149 -347 -162 -193 -12 -652 -13 -659 -1
-4 7 144 677 159 719 3 10 139 12 652 10 l648 -3 48 -140z m222 -1066 c81 -11
165 -40 165 -57 0 -52 -276 -93 -498 -74 -70 6 -150 18 -178 27 -235 70 159
150 511 104z"/>
<path d="M11252 1547 c-16 -17 -33 -75 -67 -221 -25 -109 -45 -218 -45 -241 0
-75 -1 -75 302 -75 146 0 289 5 318 10 59 11 113 47 134 89 32 61 59 195 60
293 1 93 0 99 -26 124 -37 38 -82 43 -389 43 -264 1 -266 1 -287 -22z m615
-69 c28 -25 27 -70 -4 -202 -23 -102 -32 -124 -59 -151 -17 -18 -46 -35 -64
-39 -58 -11 -530 -7 -530 5 0 6 20 98 45 206 25 107 45 197 45 199 0 3 123 4
274 2 242 -3 276 -5 293 -20z"/>
<path d="M13703 1548 c-24 -26 -113 -394 -113 -464 0 -77 -3 -76 337 -72 331
4 343 6 399 70 41 47 75 172 82 304 5 100 5 101 -24 133 -41 46 -75 50 -390
51 -268 0 -271 0 -291 -22z m617 -73 c19 -17 22 -27 17 -75 -3 -30 -15 -97
-27 -148 -25 -106 -52 -146 -108 -162 -21 -5 -149 -10 -291 -10 -242 0 -253 1
-248 19 2 10 24 105 48 210 l43 192 272 -3 c256 -3 273 -4 294 -23z"/>
<path d="M5903 1688 c-6 -7 -40 -110 -76 -228 -36 -118 -100 -325 -142 -460
-42 -135 -81 -267 -86 -295 -37 -188 -40 -229 -22 -288 30 -103 118 -161 273
-182 19 -3 67 -9 105 -15 68 -9 852 -6 925 4 72 10 96 15 150 29 30 9 68 20
83 26 42 16 137 84 178 128 44 45 109 146 109 167 0 8 4 17 10 21 5 3 17 31
26 63 9 31 27 84 40 117 12 33 75 247 139 475 64 228 118 423 121 433 5 16
-10 17 -219 17 l-224 0 -72 -252 c-94 -331 -165 -570 -189 -636 -42 -117 -91
-162 -197 -182 -92 -17 -568 -18 -657 -1 -97 19 -111 39 -107 151 2 29 34 145
89 315 44 136 180 588 180 598 0 4 -96 7 -214 7 -159 0 -216 -3 -223 -12z
m327 -79 c0 -7 -24 -91 -54 -188 -30 -97 -78 -255 -106 -351 -28 -96 -60 -202
-70 -235 -41 -133 -34 -190 31 -254 47 -47 115 -56 454 -55 373 0 411 7 517
96 74 62 109 149 238 601 l115 397 137 0 c100 0 138 -3 138 -12 0 -11 -121
-448 -180 -648 -44 -151 -117 -351 -147 -407 -70 -126 -163 -190 -327 -224
-147 -30 -518 -44 -798 -30 -252 13 -355 29 -430 67 -76 38 -90 70 -85 184 2
52 12 127 22 165 44 173 266 888 278 896 6 4 68 8 138 8 95 1 129 -1 129 -10z"/>
<path d="M2688 1680 l-216 -5 -59 -65 c-32 -36 -185 -209 -338 -385 -154 -176
-334 -381 -400 -455 -66 -75 -147 -167 -181 -205 -33 -39 -111 -126 -172 -195
-61 -69 -111 -129 -111 -133 -1 -6 356 -11 478 -7 4 0 57 56 115 125 l107 125
460 0 c252 0 459 -4 459 -8 0 -20 30 -236 34 -239 2 -3 355 -5 485 -3 10 0 12
10 7 43 -10 61 -34 212 -56 360 -11 70 -22 142 -25 160 -3 18 -8 46 -10 62 -3
17 -18 113 -34 215 -48 294 -69 429 -81 515 -7 44 -17 86 -22 93 -11 13 -15
13 -440 2z m367 -102 c6 -32 29 -170 65 -403 17 -110 33 -211 35 -225 8 -47
57 -365 65 -420 4 -30 13 -83 19 -117 19 -102 17 -103 -149 -103 -76 0 -141 3
-143 8 -3 4 -8 36 -12 72 -10 98 -21 141 -43 162 -18 19 -34 19 -507 12 l-489
-7 -56 -56 c-30 -31 -81 -86 -113 -123 l-58 -68 -140 0 c-76 0 -139 3 -139 8
1 23 -17 2 515 606 165 188 363 413 440 501 77 88 144 163 150 167 5 4 133 8
282 8 l273 0 5 -22z"/>
<path d="M2604 1398 c-16 -13 -37 -32 -46 -44 -9 -11 -110 -128 -223 -260
-114 -131 -213 -254 -221 -273 -12 -27 -13 -39 -3 -62 l11 -29 335 0 c327 0
336 1 365 21 54 39 60 72 43 208 -9 65 -18 129 -20 142 -3 13 -12 79 -20 146
-8 67 -20 134 -27 148 -11 24 -16 25 -88 25 -65 0 -82 -4 -106 -22z m120 -95
c3 -21 17 -123 31 -228 14 -104 28 -207 31 -227 l6 -38 -302 0 -302 0 54 63
c30 34 92 107 138 162 95 112 101 119 195 228 62 71 70 77 105 77 36 0 39 -2
44 -37z"/>
<path d="M3899 1663 c-6 -15 -44 -125 -84 -243 -40 -118 -148 -433 -239 -699
-92 -266 -165 -486 -163 -488 5 -4 1203 -3 1322 2 72 2 137 8 214 19 163 24
314 130 410 289 23 37 41 71 41 75 0 4 12 30 25 57 14 28 25 56 25 63 0 7 9
29 19 50 21 41 121 362 142 457 8 33 14 105 14 160 0 92 -2 104 -28 148 -34
58 -91 96 -177 118 -58 15 -144 17 -788 18 l-722 2 -11 -28z m1456 -72 c71
-14 131 -46 159 -84 18 -25 21 -42 20 -135 -1 -141 -34 -274 -139 -557 -14
-38 -29 -79 -34 -90 -132 -297 -212 -360 -501 -396 -88 -10 -1298 -26 -1323
-16 -15 5 -8 26 223 697 62 179 131 381 154 450 23 69 45 131 50 138 11 18
1297 11 1391 -7z"/>
<path d="M4172 1373 c-29 -25 -44 -63 -159 -406 -115 -347 -125 -380 -112
-403 l13 -25 471 3 470 3 55 26 c30 14 78 46 105 71 66 61 96 120 159 317 46
140 58 200 59 272 0 47 -5 64 -31 101 -17 25 -39 49 -49 54 -10 5 -227 10
-483 12 l-465 3 -33 -28z m928 -79 c55 -32 59 -73 22 -220 -44 -177 -104 -324
-151 -372 -39 -38 -84 -59 -146 -67 -62 -8 -835 -12 -835 -5 0 5 212 644 225
678 4 11 85 13 427 10 406 -3 424 -4 458 -24z"/>
</g>
</svg>
