<?xml version="1.0" standalone="no"?>
<!DOCTYPE svg PUBLIC "-//W3C//DTD SVG 20010904//EN"
 "http://www.w3.org/TR/2001/REC-SVG-20010904/DTD/svg10.dtd">
<svg version="1.0" xmlns="http://www.w3.org/2000/svg"
 width="1500.000000pt" height="187.000000pt" viewBox="0 0 1500.000000 187.000000"
 preserveAspectRatio="xMidYMid meet">

<g transform="translate(0.000000,187.000000) scale(0.100000,-0.100000)"
fill="#000000" stroke="none">
<path d="M3573 1693 c-3 -10 -19 -52 -34 -93 -15 -41 -53 -145 -83 -230 -30
-85 -85 -238 -121 -340 -37 -102 -97 -270 -135 -375 -37 -104 -91 -254 -119
-333 -28 -79 -51 -150 -51 -158 0 -12 89 -14 639 -14 601 0 951 10 1031 30
235 57 352 145 463 350 86 158 222 557 273 799 3 13 5 57 5 97 0 58 -5 82 -25
121 -45 85 -70 104 -184 136 -75 21 -94 21 -865 25 -752 3 -787 2 -794 -15z
m1132 -383 c77 -4 147 -11 155 -14 43 -19 64 -91 49 -166 -18 -88 -91 -305
-131 -390 -44 -91 -117 -141 -235 -159 -76 -12 -893 -16 -893 -5 0 4 56 167
125 363 69 196 128 362 130 369 5 14 568 16 800 2z"/>
<path d="M5731 1688 c-41 -109 -326 -997 -346 -1078 -55 -227 -20 -346 119
-410 78 -36 155 -48 368 -60 287 -16 836 -7 948 15 14 3 48 9 75 14 171 33
348 172 424 334 45 97 120 323 256 776 69 230 125 421 125 424 0 4 -106 7
-235 7 -235 0 -235 0 -245 -22 -5 -13 -64 -203 -130 -423 -67 -220 -130 -422
-142 -450 -53 -128 -65 -149 -107 -186 -24 -22 -49 -39 -55 -40 -6 0 -20 -3
-31 -6 -70 -17 -223 -24 -465 -20 -295 6 -336 12 -373 58 -32 39 -17 132 57
353 36 105 101 307 146 449 45 142 84 265 87 273 4 12 -30 14 -231 14 -236 0
-237 0 -245 -22z"/>
<path d="M7875 1653 c-9 -32 -111 -374 -226 -761 -115 -387 -209 -712 -209
-723 0 -19 14 -19 794 -19 l794 0 16 48 c27 85 96 341 96 357 0 13 -59 15
-538 15 l-539 0 163 563 c90 309 164 565 164 570 0 4 -112 7 -249 7 l-250 0
-16 -57z"/>
<path d="M9177 1703 c-7 -12 -107 -370 -107 -382 0 -8 103 -11 336 -11 280 0
335 -2 331 -14 -5 -13 -289 -1063 -302 -1119 l-7 -27 250 0 c138 0 253 4 256
8 4 7 110 408 270 1022 l33 125 338 5 339 5 48 190 c26 105 48 193 48 198 0 4
-411 7 -914 7 -503 0 -917 -3 -919 -7z"/>
<path d="M10991 1303 c-51 -225 -95 -418 -98 -430 l-5 -23 404 0 c414 0 536 8
614 38 57 23 129 93 156 151 45 99 99 304 113 429 5 48 10 60 19 53 9 -7 16
-7 23 0 8 8 13 7 18 -2 6 -8 4 -10 -6 -5 -9 5 -9 3 1 -6 15 -12 316 -866 309
-872 -2 -1 -152 -8 -334 -15 -573 -20 -931 -63 -1168 -138 -97 -30 -153 -76
-139 -114 48 -129 769 -229 1658 -229 834 0 1526 85 1652 202 142 134 -390
248 -1314 281 l-330 12 386 445 386 445 77 3 c42 2 77 1 77 -2 0 -2 -34 -151
-75 -331 -41 -180 -75 -332 -75 -336 0 -12 796 -11 890 1 110 14 165 38 221
93 27 26 49 55 49 63 0 7 5 14 10 14 6 0 10 7 10 15 0 8 4 23 9 33 44 83 94
308 95 427 1 90 -1 103 -23 134 -13 18 -42 42 -65 52 -39 18 -80 19 -733 19
l-691 0 -114 -137 c-143 -174 -246 -306 -283 -362 -25 -37 -30 -40 -36 -25 -4
11 -44 133 -88 272 l-82 252 -712 0 -713 0 -93 -407z m876 175 c28 -25 27 -70
-4 -202 -23 -102 -32 -124 -59 -151 -17 -18 -46 -35 -64 -39 -58 -11 -530 -7
-530 5 0 6 20 98 45 206 25 107 45 197 45 199 0 3 123 4 274 2 242 -3 276 -5
293 -20z m2453 -3 c19 -17 22 -27 17 -75 -3 -30 -15 -97 -27 -148 -25 -106
-52 -146 -108 -162 -21 -5 -149 -10 -291 -10 -242 0 -253 1 -248 19 2 10 24
105 48 210 l43 192 272 -3 c256 -3 273 -4 294 -23z m-1605 -1036 c81 -11 165
-40 165 -57 0 -52 -276 -93 -498 -74 -70 6 -150 18 -178 27 -235 70 159 150
511 104z"/>
<path d="M1970 1593 c-47 -53 -116 -133 -155 -178 -38 -45 -142 -164 -230
-265 -88 -101 -225 -258 -304 -349 -79 -91 -169 -195 -201 -231 -287 -326
-360 -411 -360 -421 0 -5 109 -9 258 -9 l259 0 112 135 111 135 483 0 483 0
12 -119 c6 -65 15 -126 18 -135 5 -14 36 -16 265 -16 l259 0 0 25 c0 13 -5 46
-10 72 -6 26 -21 129 -35 228 -13 99 -32 227 -40 285 -9 58 -18 119 -20 135
-8 57 -106 740 -111 773 l-5 32 -352 0 -352 0 -85 -97z m362 -398 c10 -71 26
-196 36 -277 l19 -148 -309 0 c-174 0 -308 4 -306 9 3 9 26 36 183 220 50 59
112 133 140 166 48 57 104 121 134 152 8 8 28 13 49 11 l36 -3 18 -130z"/>
</g>
</svg>
